# xmcd CD database file
#
# Track frame offsets:
#	150
#	14479
#	60016
#	105069
#	136195
#	166121
#
# Disc length: 2747 seconds
#
# Revision: 0
# Processed by: cddbd v1.5.2PL0 Copyright (c) Steve Scherf et al.
# Submitted via: CDex 1.70beta3
#
DISCID=340ab906
DTITLE=JOE ZAWINUL - 75th
DYEAR=2008
DGENRE=Jazz
TTITLE0=INTRODUCTION TO ORIENT EXPRESS
TTITLE1=ORIENT EXPRESS
TTITLE2=MADAGASCAR
TTITLE3=SCARLET WOMAN
TTITLE4=ZANSA II
TTITLE5=CAFE ANDALUSIA
EXTD=YEAR: 2008
EXTT0=
EXTT1=
EXTT2=
EXTT3=
EXTT4=
EXTT5=
PLAYORDER=
